{"title":"Godzilla 2014 HDTS HC XVID AC3 ACAB","uid":10499243,"size":1607246834,"categoryP":"video","categoryS":"movies","magnet":"?xt=urn:btih:8550d057a277f4cf398b9397f7421a6947ee3dec&amp;dn=Godzilla+2014+HDTS+HC+XVID+AC3+ACAB&amp;tr=udp%3A%2F%2Ftracker.openbittorrent.com%3A80&amp;tr=udp%3A%2F%2Fopen.demonii.com%3A1337&amp;tr=udp%3A%2F%2Ftracker.coppersurfer.tk%3A6969&amp;tr=udp%3A%2F%2Fexodus.desync.com%3A6969","seeders":2,"leechers":0,"uploader":"xxxlavalxxx","files":-1,"time":1404671778,"description":"[IMG]http://i.imgur.com/KO3P9zL.jpg[/IMG]\n\n &lt;a href=&quot;\nhttp://www.imdb.com/title/tt0831387/&quot; rel=&quot;nofollow&quot; target=&quot;_NEW&quot;&gt;\nhttp://www.imdb.com/title/tt0831387/&lt;/a&gt;\n\n\nThe world's most famous monster is pitted against malevolent creatures who, bolstered by humanity's scientific arrogance, threaten our very existence.\n\nDirector: Gareth Edwards\nWriters: Max Borenstein (screenplay), Dave Callaham (story)\nStars: Aaron Taylor-Johnson, Elizabeth Olsen, Bryan Cranston \nGenres: Action | Adventure | Sci-Fi\nCountry: USA | Japan\nLanguage: English\n\n\nFormat                                   : AVI\nFormat/Info                              : Audio Video Interleave\nFile size                                : 1.46 GiB\nDuration                                 : 1h 56mn\nOverall bit rate                         : 1 797 Kbps\nWriting library                          : VirtualDub build 30091/release\n\nVideo\nID                                       : 0\nFormat                                   : MPEG-4 Visual\nFormat profile                           : Advanced Simple@L5\nFormat settings, BVOP                    : 2\nFormat settings, QPel                    : No\nFormat settings, GMC                     : No warppoints\nFormat settings, Matrix                  : Default (H.263)\nMuxing mode                              : Packed bitstream\nCodec ID                                 : XVID\nCodec ID/Hint                            : XviD\nDuration                                 : 1h 56mn\nBit rate                                 : 1 596 Kbps\nWidth                                    : 720 pixels\nHeight                                   : 304 pixels\nDisplay aspect ratio                     : 2.35:1\nFrame rate                               : 25.000 fps\nColor space                              : YUV\nChroma subsampling                       : 4:2:0\nBit depth                                : 8 bits\nScan type                                : Progressive\nCompression mode                         : Lossy\nBits/(Pixel*Frame)                       : 0.292\nStream size                              : 1.30 GiB (89%)\nWriting library                          : XviD 1.2.1 (UTC 2008-12-04)\n\nAudio\nID                                       : 1\nFormat                                   : AC-3\nFormat/Info                              : Audio Coding 3\nMode extension                           : CM (complete main)\nFormat settings, Endianness              : Big\nCodec ID                                 : 2000\nDuration                                 : 1h 56mn\nBit rate mode                            : Constant\nBit rate                                 : 192 Kbps\nChannel(s)                               : 2 channels\nChannel positions                        : Front: L R\nSampling rate                            : 48.0 KHz\nBit depth                                : 16 bits\nCompression mode                         : Lossy\nStream size                              : 160 MiB (11%)\n\n\nscreens\n &lt;a href=&quot;\nhttp://i.imgur.com/IUyLoXN.png&quot; rel=&quot;nofollow&quot; target=&quot;_NEW&quot;&gt;\nhttp://i.imgur.com/IUyLoXN.png&lt;/a&gt; &lt;a href=&quot;\nhttp://i.imgur.com/THIgcgg.png&quot; rel=&quot;nofollow&quot; target=&quot;_NEW&quot;&gt;\nhttp://i.imgur.com/THIgcgg.png&lt;/a&gt; &lt;a href=&quot;\nhttp://i.imgur.com/8ewj9OY.png&quot; rel=&quot;nofollow&quot; target=&quot;_NEW&quot;&gt;\nhttp://i.imgur.com/8ewj9OY.png&lt;/a&gt; &lt;a href=&quot;\nhttp://i.imgur.com/BTYdYTA.png&quot; rel=&quot;nofollow&quot; target=&quot;_NEW&quot;&gt;\nhttp://i.imgur.com/BTYdYTA.png&lt;/a&gt;","torrent":{"xt":"urn:btih:8550d057a277f4cf398b9397f7421a6947ee3dec","amp;dn":"Godzilla+2014+HDTS+HC+XVID+AC3+ACAB","amp;tr":["udp%3A%2F%2Ftracker.openbittorrent.com%3A80","udp%3A%2F%2Fopen.demonii.com%3A1337","udp%3A%2F%2Ftracker.coppersurfer.tk%3A6969","udp%3A%2F%2Fexodus.desync.com%3A6969"],"infoHash":"8550d057a277f4cf398b9397f7421a6947ee3dec","infoHashBuffer":{"type":"Buffer","data":[133,80,208,87,162,119,244,207,57,139,147,151,247,66,26,105,71,238,61,236]},"announce":[],"urlList":[]}}